<svg xmlns="http://www.w3.org/2000/svg" width="1200" height="420" viewBox="0 0 1200 420">
<rect width="1200" height="420" fill="white"/>
<g font-family="Arial" font-size="24" fill="black" stroke="black" stroke-width="2">
<rect x="40" y="150" width="190" height="100" fill="none"/>
<text x="68" y="192">Client Issue</text><text x="68" y="222">Webhook / UI</text>
<rect x="285" y="150" width="200" height="100" fill="none"/>
<text x="320" y="192">FastAPI</text><text x="312" y="222">Copilot API</text>
<rect x="540" y="60" width="230" height="90" fill="none"/>
<text x="585" y="103">Retrieval</text><text x="565" y="133">Cases + SOPs</text>
<rect x="540" y="250" width="230" height="90" fill="none"/>
<text x="598" y="293">Claude</text><text x="568" y="323">Structured Output</text>
<rect x="835" y="150" width="320" height="100" fill="none"/>
<text x="870" y="192">Resolve / Ask / Escalate</text><text x="900" y="222">Ticket + Reply Draft</text>
<line x1="230" y1="200" x2="285" y2="200"/><polygon points="285,200 273,194 273,206" fill="black"/>
<line x1="485" y1="200" x2="540" y2="105"/><polygon points="540,105 528,109 537,116" fill="black"/>
<line x1="485" y1="200" x2="540" y2="295"/><polygon points="540,295 528,284 537,278" fill="black"/>
<line x1="770" y1="105" x2="835" y2="185"/><polygon points="835,185 822,178 825,191" fill="black"/>
<line x1="770" y1="295" x2="835" y2="215"/><polygon points="835,215 825,208 822,221" fill="black"/>
</g></svg>